<svg width="364" height="112" viewBox="0 0 364 112" fill="none" xmlns="http://www.w3.org/2000/svg">
<g clip-path="url(#clip0_94_99)">
<path d="M102.649 1.23138C95.8452 3.25068 90.0837 8.67393 87.7546 15.3088C84.9964 23.3282 84.6899 27.4822 84.6899 57.8871C84.6899 89.5035 84.9351 92.2728 88.3675 98.9653C89.3482 100.869 91.5547 103.754 93.2709 105.369C98.6647 110.389 104.671 112.523 113.804 112.523C130.414 112.523 139.976 105.485 142.305 91.7535C142.673 89.1573 142.918 82.7532 142.795 75.8876L142.612 64.3488H131.272H119.933L119.627 76.1761C119.32 87.2534 119.259 88.1188 117.972 89.7919C115.704 92.792 111.781 92.8497 109.575 89.9073C108.717 88.7534 108.594 84.9456 108.594 55.8101V23.0398L110.126 21.6551C112.517 19.3474 116.869 19.8666 118.523 22.6936C119.014 23.5013 119.382 27.6553 119.627 34.3478L119.933 44.7328L130.598 44.9059C137.892 45.0213 141.508 44.8482 142.06 44.3866C143.102 43.5789 143.286 27.8284 142.244 20.9628C140.773 10.8086 134.827 4.11609 124.469 1.11599C119.259 -0.441749 107.981 -0.384054 102.649 1.23138Z" fill="white"/>
<path d="M4.70291 1.11598L0.41242 1.46215L0.228542 56.1562L0.105957 110.793L1.69957 111.37C2.68025 111.716 11.8741 111.889 25.4198 111.831L47.6078 111.658V102.427V93.1959L35.9622 92.9074L24.3166 92.6189L24.0101 47.1559C23.7649 7.57773 23.581 1.63523 22.7842 1.17368C21.8036 0.596735 11.9967 0.596735 4.70291 1.11598Z" fill="white"/>
<path d="M54.4113 1.51976C53.5532 2.32748 53.4307 8.0969 53.4307 56.2715V110.158L54.7791 111.023C56.6792 112.293 74.3315 112.35 75.4347 111.139C76.4154 110.043 76.4154 2.50056 75.4347 1.40437C74.3315 0.135101 55.6985 0.25049 54.4113 1.51976Z" fill="white"/>
<path d="M151.867 1.51988C151.009 2.32759 150.886 8.09701 150.886 56.2717V110.158L152.234 111.023C153.338 111.773 156.893 111.889 175.158 111.947C188.091 111.947 197.346 111.716 198.327 111.37L199.92 110.793L199.798 100.581L199.614 90.3112L188.029 90.1381C180.736 90.0804 176.139 89.7343 175.587 89.3881C174.606 88.5804 174.422 67.522 175.403 65.7335C176.016 64.695 176.813 64.6373 186.007 64.6373C192.994 64.6373 196.243 64.4065 196.733 63.945C197.652 63.0796 197.775 46.0021 196.794 44.3867C196.243 43.3482 195.507 43.2328 186.007 43.3482C178.161 43.3482 175.71 43.2328 175.28 42.5981C174.974 42.1943 174.851 37.6364 174.913 32.444C175.035 24.8283 175.28 22.9244 176.016 22.5206C176.506 22.2321 181.655 21.9436 187.416 21.9436C196.426 21.9436 198.02 21.8282 198.327 21.0205C199.062 19.232 198.756 2.03912 197.959 1.2891C197.407 0.769852 191.462 0.59677 175.035 0.59677C155.667 0.59677 152.663 0.712158 151.867 1.51988Z" fill="white"/>
<path d="M208.256 1.51969C207.398 2.32741 207.275 8.09683 207.275 56.2138C207.275 105.6 207.336 110.158 208.317 110.85C209.849 112.062 230.382 112.004 231.179 110.792C231.547 110.273 231.792 100.638 231.792 86.8494C231.792 74.1567 231.792 63.1948 231.792 62.4447C231.792 60.887 233.754 60.7139 237.002 61.9832C238.596 62.6178 239.209 63.3102 239.699 65.041C240.128 66.4256 240.373 75.4259 240.373 89.0418V110.792L241.967 111.427C243.806 112.062 262.255 112.062 262.684 111.427C262.868 111.196 263.051 100.292 263.174 87.1379C263.358 63.3102 263.358 63.1948 261.948 60.4831C261.213 58.9831 259.497 56.9061 258.148 55.9253C255.206 53.6752 255.083 52.8675 257.535 51.6559C259.864 50.502 262.561 46.6942 263.848 42.6556C264.645 40.1748 264.89 37.2901 264.89 30.2514C264.829 16.8086 262.868 9.71226 258.025 5.44289C253.183 1.11583 249.812 0.596583 227.134 0.596583C211.627 0.596583 209.053 0.711971 208.256 1.51969ZM240.128 22.7511C242.641 25.4051 242.58 36.5978 240.067 40.1748C239.27 41.3864 238.657 41.5594 235.47 41.5594H231.792V31.5784C231.792 26.0397 231.976 21.3665 232.283 21.1357C232.528 20.8472 234.121 20.8472 235.776 21.0203C237.983 21.2511 239.209 21.7127 240.128 22.7511Z" fill="white"/>
<path d="M272.981 1.28892C271.878 2.32742 271.939 110.504 273.042 111.196C273.41 111.427 278.191 111.773 283.523 111.831C292.349 112.004 293.391 111.946 294.127 111.023C295.169 109.696 295.291 3.53899 294.311 1.69278C293.698 0.654284 292.901 0.59659 283.707 0.59659C276.72 0.59659 273.471 0.827367 272.981 1.28892Z" fill="white"/>
<path d="M313.005 1.17372C312.453 2.03914 310.431 19.232 308.102 43.002C307.55 48.3676 306.876 55.2909 306.508 58.291C306.202 61.2911 305.527 68.0413 304.976 73.2914C304.485 78.5416 303.627 86.965 303.137 92.0421C301.482 108.6 301.421 110.85 302.34 111.427C303.443 112.062 321.954 112.062 323.057 111.427C323.67 111.023 324.099 108.831 324.528 103.754C324.835 99.8885 325.386 96.023 325.815 95.2152C326.489 93.8306 326.796 93.7729 332.006 93.5998C339.79 93.369 339.729 93.3113 340.403 102.485C341.138 112.35 340.648 112.004 352.6 111.889C364.123 111.831 364.001 111.889 363.02 105.946C362.652 103.523 362.346 100.292 362.346 98.7923C362.346 97.2922 361.978 92.6767 361.488 88.5804C359.955 76.0031 359.22 69.2529 358.668 62.9065C358.362 59.5602 357.687 52.6946 357.197 47.6175C356.645 42.5404 355.971 35.5018 355.603 32.0401C355.297 28.5208 354.561 21.4244 354.071 16.1742C353.519 10.924 353.029 5.67387 352.907 4.46229C352.478 0.4237 353.213 0.596782 332.251 0.596782C320.238 0.596782 313.25 0.827559 313.005 1.17372ZM333.477 27.713C333.845 31.0593 334.457 37.0018 334.764 40.9827C335.132 44.9636 335.928 54.137 336.603 61.4064C337.522 71.3298 337.645 74.8492 337.093 75.4261C336.603 76.0031 335.193 76.1762 332.067 76.0608L327.715 75.8877L327.531 72.8299C327.409 71.1568 327.777 66.1374 328.267 61.6949C328.819 57.1948 329.248 51.6561 329.248 49.4061C329.248 47.156 329.677 41.7904 330.167 37.5211C330.657 33.2517 331.086 28.1169 331.086 26.1553C331.086 22.4052 331.577 20.3859 332.312 21.1936C332.557 21.4244 333.048 24.3668 333.477 27.713Z" fill="white"/>
</g>
<defs>
<clipPath id="clip0_94_99">
<rect width="364" height="112" fill="white"/>
</clipPath>
</defs>
</svg>
