<svg width="20" height="16" viewBox="0 0 20 16" fill="none" xmlns="http://www.w3.org/2000/svg">
<g clip-path="url(#clip0_94_133)">
<path d="M19.2857 1.71436H0.714286C0.319196 1.71436 0 1.96971 0 2.28578V13.7144C0 14.0304 0.319196 14.2858 0.714286 14.2858H19.2857C19.6808 14.2858 20 14.0304 20 13.7144V2.28578C20 1.96971 19.6808 1.71436 19.2857 1.71436ZM18.3929 3.69293V13.0001H1.60714V3.69293L0.991071 3.309L1.8683 2.40721L2.82366 3.00186H17.1786L18.1339 2.40721L19.0112 3.309L18.3929 3.69293ZM17.1786 3.00007L10 7.46436L2.82143 3.00007L1.86607 2.40543L0.988839 3.30721L1.60491 3.69114L9.22991 8.434C9.44919 8.57029 9.71897 8.64427 9.99665 8.64427C10.2743 8.64427 10.5441 8.57029 10.7634 8.434L18.3929 3.69293L19.0089 3.309L18.1317 2.40721L17.1786 3.00007Z" fill="white"/>
</g>
<defs>
<clipPath id="clip0_94_133">
<rect width="20" height="16" fill="white"/>
</clipPath>
</defs>
</svg>
