<svg width="20" height="20" viewBox="0 0 20 20" fill="none" xmlns="http://www.w3.org/2000/svg">
<g clip-path="url(#clip0_94_135)">
<path d="M18.3393 3.70972L15.9621 1.33472C15.7944 1.16629 15.5951 1.03265 15.3756 0.941481C15.1561 0.850313 14.9207 0.80341 14.6831 0.803467C14.1987 0.803467 13.7433 0.993199 13.4018 1.33472L10.8438 3.89275C10.6753 4.06045 10.5417 4.25976 10.4505 4.47926C10.3594 4.69875 10.3125 4.9341 10.3125 5.17177C10.3125 5.65615 10.5023 6.1115 10.8438 6.45302L12.7143 8.32356C12.2765 9.28865 11.6677 10.1666 10.9174 10.9151C10.169 11.6672 9.29115 12.2781 8.32591 12.7186L6.45538 10.8481C6.28768 10.6797 6.08837 10.546 5.86887 10.4549C5.64938 10.3637 5.41403 10.3168 5.17636 10.3169C4.69198 10.3169 4.23663 10.5066 3.89511 10.8481L1.33484 13.4039C1.1662 13.5719 1.03245 13.7716 0.941279 13.9915C0.850106 14.2114 0.803312 14.4471 0.80359 14.6852C0.80359 15.1695 0.993322 15.6249 1.33484 15.9664L3.70761 18.3392C4.25225 18.8861 5.00448 19.1963 5.7768 19.1963C5.93975 19.1963 6.096 19.1829 6.25002 19.1561C9.25895 18.6606 12.2433 17.0602 14.6518 14.6539C17.0581 12.2499 18.6563 9.26775 19.1585 6.2499C19.3103 5.32802 19.0045 4.37936 18.3393 3.70972Z" fill="white"/>
</g>
<defs>
<clipPath id="clip0_94_135">
<rect width="20" height="20" fill="white"/>
</clipPath>
</defs>
</svg>
