<svg xmlns="http://www.w3.org/2000/svg" viewBox="0 0.9067 31 27.63">
	<path d="M 28.1473 3.3187 C 27.3823 2.5536 26.4739 1.9468 25.4743 1.5329 C 24.4746 1.1191 23.4031 0.9063 22.3212 0.9067 C 21.2392 0.9071 20.1679 1.1207 19.1685 1.5353 C 18.1692 1.9499 17.2613 2.5574 16.4968 3.323 L 15.4989 4.3331 L 14.5092 3.3252 L 14.5028 3.3188 C 13.7381 2.5541 12.8303 1.9475 11.8311 1.5336 C 10.832 1.1198 9.7611 0.9068 8.6797 0.9068 C 7.5982 0.9068 6.5274 1.1198 5.5282 1.5336 C 4.5291 1.9475 3.6213 2.5541 2.8566 3.3188 L 2.412 3.7634 C 0.8676 5.3078 0 7.4024 0 9.5865 C 0 11.7705 0.8676 13.8652 2.412 15.4095 L 14.1453 27.1427 L 15.4703 28.531 L 15.5019 28.4993 L 15.5362 28.5336 L 16.7776 27.2238 L 28.5919 15.4094 C 30.134 13.8637 31 11.7696 31 9.5863 C 31 7.4029 30.134 5.3088 28.5919 3.7632 L 28.1473 3.3187 Z Z" fill="#000000"/>
</svg>