<svg width="31" height="29" viewBox="0 0 31 29" fill="none" xmlns="http://www.w3.org/2000/svg">
<path d="M28.1473 3.31867C27.3823 2.55361 26.4739 1.94681 25.4743 1.53294C24.4746 1.11908 23.4031 0.906272 22.3212 0.906678C21.2392 0.907084 20.1679 1.1207 19.1685 1.53531C18.1692 1.94992 17.2613 2.55741 16.4968 3.32305L15.4989 4.33314L14.5092 3.32524L14.5028 3.3188C13.7381 2.5541 12.8303 1.9475 11.8311 1.53364C10.832 1.11978 9.76114 0.906775 8.67968 0.906775C7.59823 0.906775 6.52736 1.11978 5.52823 1.53364C4.5291 1.9475 3.62126 2.5541 2.85656 3.3188L2.412 3.76337C0.867621 5.30775 0 7.40238 0 9.58646C0 11.7705 0.867621 13.8652 2.412 15.4095L14.1453 27.1427L15.4703 28.531L15.5019 28.4993L15.5362 28.5336L16.7776 27.2238L28.5919 15.4094C30.134 13.8637 31 11.7696 31 9.58627C31 7.40295 30.134 5.30878 28.5919 3.76318L28.1473 3.31867ZM27.1358 13.9536L15.5019 25.5878L3.86768 13.9536C2.7094 12.7953 2.05869 11.2244 2.05869 9.5863C2.05869 7.94824 2.7094 6.37728 3.86768 5.21899L4.31231 4.77442C5.47003 3.61671 7.04005 2.96605 8.6773 2.96543C10.3146 2.96482 11.8851 3.6143 13.0436 4.77114L15.4944 7.26657L17.9569 4.77442C18.5304 4.20089 19.2113 3.74594 19.9606 3.43555C20.71 3.12516 21.5131 2.9654 22.3242 2.9654C23.1353 2.9654 23.9384 3.12516 24.6878 3.43555C25.4371 3.74594 26.118 4.20089 26.6915 4.77442L27.1361 5.21893C28.2926 6.37817 28.9421 7.94882 28.9421 9.58632C28.942 11.2238 28.2924 12.7944 27.1358 13.9536Z" fill="black"/>
</svg>
