<svg width="24" height="24" viewBox="0 0 24 24" fill="none" xmlns="http://www.w3.org/2000/svg">
<path d="M20.7637 18.7719L17.455 15.473C18.5225 14.113 19.1017 12.4335 19.0996 10.7046C19.0996 9.16483 18.643 7.65965 17.7876 6.37939C16.9321 5.09913 15.7162 4.10129 14.2937 3.51205C12.8711 2.92281 11.3058 2.76863 9.79564 3.06903C8.28547 3.36942 6.89829 4.11088 5.80952 5.19965C4.72074 6.28843 3.97928 7.67561 3.67889 9.18578C3.3785 10.6959 3.53267 12.2613 4.12191 13.6838C4.71115 15.1064 5.70899 16.3223 6.98925 17.1777C8.26951 18.0331 9.77469 18.4897 11.3144 18.4897C13.0434 18.4919 14.7228 17.9126 16.0828 16.8451L19.3818 20.1538C19.4723 20.245 19.5799 20.3174 19.6985 20.3668C19.8171 20.4162 19.9443 20.4417 20.0727 20.4417C20.2012 20.4417 20.3284 20.4162 20.447 20.3668C20.5656 20.3174 20.6732 20.245 20.7637 20.1538C20.8549 20.0633 20.9273 19.9557 20.9767 19.8371C21.0261 19.7185 21.0515 19.5913 21.0515 19.4629C21.0515 19.3344 21.0261 19.2072 20.9767 19.0886C20.9273 18.97 20.8549 18.8624 20.7637 18.7719ZM5.47559 10.7046C5.47559 9.54977 5.81803 8.42088 6.45961 7.46069C7.10119 6.50049 8.0131 5.75211 9.08001 5.31018C10.1469 4.86825 11.3209 4.75262 12.4536 4.97792C13.5862 5.20321 14.6266 5.75931 15.4431 6.57589C16.2597 7.39247 16.8158 8.43285 17.0411 9.56548C17.2664 10.6981 17.1508 11.8721 16.7088 12.939C16.2669 14.0059 15.5185 14.9178 14.5583 15.5594C13.5981 16.201 12.4693 16.5434 11.3144 16.5434C9.76588 16.5434 8.28075 15.9283 7.18575 14.8333C6.09075 13.7383 5.47559 12.2531 5.47559 10.7046Z" fill="#231F20"/>
</svg>
