<svg width="126" height="39" viewBox="0 0 126 39" xmlns="http://www.w3.org/2000/svg">
<style>
  path {
  fill: black;
  }
  @media (prefers-color-scheme: dark) {
      path {
      fill: white;
      }
  }
</style>
<g clip-path="url(#clip0_36_97)">
<path d="M40.1261 5.42768C38.1039 6.02884 36.3915 7.6434 35.6992 9.61865C34.8794 12.0061 34.7883 13.2428 34.7883 22.2946C34.7883 31.7071 34.8612 32.5316 35.8814 34.524C36.1729 35.0908 36.8287 35.9497 37.3388 36.4306C38.9419 37.9249 40.7272 38.5604 43.4416 38.5604C48.3786 38.5604 51.2205 36.4649 51.9128 32.377C52.0221 31.6041 52.0949 29.6975 52.0585 27.6536L52.0039 24.2184H48.6336H45.2634L45.1723 27.7395C45.0812 31.0373 45.063 31.2949 44.6804 31.793C44.0064 32.6862 42.8405 32.7034 42.1846 31.8274C41.9296 31.4839 41.8931 30.3502 41.8931 21.6763V11.9203L42.3486 11.508C43.0591 10.821 44.3525 10.9756 44.8444 11.8172C44.9901 12.0577 45.0994 13.2943 45.1723 15.2868L45.2634 18.3785L48.4332 18.43C50.6011 18.4644 51.6759 18.4128 51.8399 18.2754C52.1496 18.035 52.2042 13.3459 51.8945 11.3019C51.4573 8.27891 49.6902 6.28648 46.6115 5.39332C45.063 4.92957 41.711 4.94674 40.1261 5.42768Z" />
<path d="M11.0145 5.39333L9.73928 5.49639L9.68463 21.7794L9.64819 38.0451L10.1218 38.2169C10.4133 38.32 13.146 38.3715 17.172 38.3543L23.7667 38.3028V35.5546V32.8064L20.3054 32.7205L16.8441 32.6347L16.753 19.0999C16.6801 7.31705 16.6255 5.54791 16.3887 5.4105C16.0972 5.23874 13.1824 5.23874 11.0145 5.39333Z" />
<path d="M25.7888 5.51355C25.5337 5.75402 25.4973 7.47163 25.4973 21.8137V37.8562L25.8981 38.1138C26.4628 38.4917 31.7095 38.5089 32.0374 38.1482C32.3289 37.8219 32.3289 5.80555 32.0374 5.4792C31.7095 5.10133 26.1714 5.13568 25.7888 5.51355Z" />
<path d="M54.7546 5.51353C54.4996 5.754 54.4631 7.47161 54.4631 21.8137V37.8562L54.8639 38.1138C55.1918 38.3371 56.2484 38.3715 61.6773 38.3886C65.5211 38.3886 68.272 38.3199 68.5635 38.2169L69.0371 38.0451L69.0007 35.0049L68.946 31.9476L65.5029 31.8961C63.3351 31.8789 61.9687 31.7758 61.8048 31.6728C61.5133 31.4323 61.4586 25.163 61.7501 24.6306C61.9323 24.3214 62.1691 24.3042 64.9018 24.3042C66.9785 24.3042 67.9441 24.2355 68.0898 24.0981C68.3631 23.8405 68.3995 18.7563 68.108 18.2754C67.9441 17.9662 67.7255 17.9319 64.9018 17.9662C62.5699 17.9662 61.8412 17.9319 61.7137 17.7429C61.6226 17.6227 61.5862 16.2658 61.6044 14.7199C61.6408 12.4527 61.7137 11.8859 61.9323 11.7656C62.078 11.6798 63.6083 11.5939 65.3208 11.5939C67.9987 11.5939 68.4724 11.5595 68.5635 11.3191C68.7821 10.7866 68.691 5.66812 68.4542 5.44482C68.2902 5.29024 66.5231 5.23871 61.6408 5.23871C55.8841 5.23871 54.9914 5.27306 54.7546 5.51353Z" />
<path d="M71.5149 5.51353C71.2598 5.754 71.2234 7.47161 71.2234 21.7965C71.2234 36.4993 71.2416 37.8562 71.5331 38.0623C71.9885 38.423 78.0914 38.4058 78.3282 38.0451C78.4375 37.8905 78.5104 35.0221 78.5104 30.917C78.5104 27.1383 78.5104 23.8748 78.5104 23.6515C78.5104 23.1878 79.0933 23.1362 80.0589 23.5141C80.5325 23.7031 80.7147 23.9092 80.8604 24.4245C80.988 24.8367 81.0608 27.5162 81.0608 31.5697V38.0451L81.5345 38.2341C82.081 38.423 87.5645 38.423 87.692 38.2341C87.7467 38.1654 87.8013 34.9191 87.8377 31.0029C87.8924 23.9092 87.8924 23.8748 87.4734 23.0675C87.2548 22.621 86.7447 22.0026 86.3439 21.7106C85.4695 21.0408 85.433 20.8003 86.1617 20.4396C86.854 20.0961 87.6556 18.9624 88.0381 17.7601C88.275 17.0215 88.3478 16.1627 88.3478 14.0672C88.3296 10.0652 87.7467 7.95255 86.3075 6.68151C84.8683 5.3933 83.8663 5.23872 77.1259 5.23872C72.5168 5.23872 71.7517 5.27307 71.5149 5.51353ZM80.988 11.8344C81.7349 12.6245 81.7167 15.9566 80.9697 17.0215C80.7329 17.3822 80.5507 17.4338 79.6034 17.4338H78.5104V14.4623C78.5104 12.8134 78.565 11.4221 78.6561 11.3534C78.729 11.2675 79.2026 11.2675 79.6945 11.3191C80.3504 11.3878 80.7147 11.5252 80.988 11.8344Z" />
<path d="M90.7524 5.44483C90.4245 5.754 90.4427 37.9592 90.7706 38.1654C90.8799 38.2341 92.3009 38.3371 93.8858 38.3543C96.5091 38.4058 96.8188 38.3886 97.0374 38.1138C97.3471 37.7188 97.3836 6.1147 97.0921 5.56506C96.9099 5.25589 96.6731 5.23872 93.9405 5.23872C91.8637 5.23872 90.8981 5.30742 90.7524 5.44483Z" />
<path d="M102.648 5.41049C102.484 5.66813 101.883 10.7866 101.191 17.8632C101.027 19.4606 100.827 21.5217 100.717 22.4149C100.626 23.308 100.426 25.3176 100.262 26.8806C100.116 28.4437 99.8612 30.9514 99.7154 32.4629C99.2235 37.3924 99.2053 38.0623 99.4786 38.2341C99.8065 38.423 105.308 38.423 105.636 38.2341C105.818 38.1138 105.946 37.4611 106.073 35.9496C106.164 34.7988 106.328 33.648 106.456 33.4076C106.656 32.9954 106.747 32.9782 108.296 32.9266C110.609 32.8579 110.591 32.8408 110.792 35.5718C111.01 38.5089 110.865 38.4058 114.417 38.3715C117.842 38.3543 117.805 38.3715 117.514 36.6023C117.405 35.8809 117.314 34.9191 117.314 34.4725C117.314 34.0259 117.204 32.6518 117.058 31.4323C116.603 27.6879 116.384 25.6783 116.22 23.7889C116.129 22.7927 115.929 20.7488 115.783 19.2373C115.619 17.7258 115.419 15.6303 115.31 14.5997C115.219 13.552 115 11.4393 114.854 9.87628C114.69 8.31325 114.544 6.75023 114.508 6.38953C114.38 5.1872 114.599 5.23873 108.369 5.23873C104.798 5.23873 102.721 5.30743 102.648 5.41049ZM108.733 13.3115C108.842 14.3077 109.025 16.0769 109.116 17.262C109.225 18.4472 109.462 21.1782 109.662 23.3424C109.935 26.2967 109.972 27.3444 109.808 27.5162C109.662 27.6879 109.243 27.7395 108.314 27.7051L107.021 27.6536L106.966 26.7432C106.93 26.2451 107.039 24.7508 107.185 23.4282C107.349 22.0885 107.476 20.4396 107.476 19.7697C107.476 19.0999 107.604 17.5025 107.749 16.2314C107.895 14.9604 108.023 13.4317 108.023 12.8478C108.023 11.7313 108.168 11.1301 108.387 11.3706C108.46 11.4393 108.606 12.3153 108.733 13.3115Z" />
</g>
<defs>
<clipPath id="clip0_36_97">
<rect width="125.427" height="39" fill="white" transform="translate(0.402832)"/>
</clipPath>
</defs>
</svg>
